<svg xmlns="http://www.w3.org/2000/svg" width="860" height="480" viewBox="0 0 860 480">
<style>.t{font:12px ui-monospace,monospace;fill:#444}.title{font:bold 16px ui-sans-serif,sans-serif;fill:#111}.sub{font:12px ui-sans-serif,sans-serif;fill:#666}.lbl{font:13px ui-sans-serif,sans-serif;fill:#333}</style>
<rect width="860" height="480" fill="#fff"/>
<text x="90" y="26" class="title">ROBBED_ curve — spot price vs tokens sold</text>
<text x="90" y="46" class="sub">virtualEth0=2.030818 ETH, virtualToken0=1073.2266e6 — ETH/USD $1770.29593304 (coingecko, 2026-07-13T17:26:32.436Z)</text>
<line x1="90" y1="416" x2="820" y2="416" stroke="#e5e5e5"/><text x="80" y="420" text-anchor="end" class="t">0</text><line x1="90" y1="356.220403866238" x2="820" y2="356.220403866238" stroke="#e5e5e5"/><text x="80" y="360.220403866238" text-anchor="end" class="t">5.00</text><line x1="90" y1="296.44080773247595" x2="820" y2="296.44080773247595" stroke="#e5e5e5"/><text x="80" y="300.44080773247595" text-anchor="end" class="t">10.0</text><line x1="90" y1="236.66121159871395" x2="820" y2="236.66121159871395" stroke="#e5e5e5"/><text x="80" y="240.66121159871395" text-anchor="end" class="t">15.0</text><line x1="90" y1="176.88161546495195" x2="820" y2="176.88161546495195" stroke="#e5e5e5"/><text x="80" y="180.88161546495195" text-anchor="end" class="t">20.0</text><line x1="90" y1="117.10201933118992" x2="820" y2="117.10201933118992" stroke="#e5e5e5"/><text x="80" y="121.10201933118992" text-anchor="end" class="t">25.0</text><line x1="90" y1="416" x2="90" y2="422" stroke="#888"/><text x="90" y="438" text-anchor="middle" class="t">0</text><line x1="274.0877569032909" y1="416" x2="274.0877569032909" y2="422" stroke="#888"/><text x="274.0877569032909" y="438" text-anchor="middle" class="t">200</text><line x1="458.17551380658176" y1="416" x2="458.17551380658176" y2="422" stroke="#888"/><text x="458.17551380658176" y="438" text-anchor="middle" class="t">400</text><line x1="642.2632707098726" y1="416" x2="642.2632707098726" y2="422" stroke="#888"/><text x="642.2632707098726" y="438" text-anchor="middle" class="t">600</text>
<line x1="90" y1="416" x2="820" y2="416" stroke="#888"/>
<line x1="90" y1="64" x2="90" y2="416" stroke="#888"/>
<path d="M90.0,393.4 L93.7,393.2 L97.3,393.0 L101.0,392.9 L104.6,392.7 L108.3,392.5 L111.9,392.3 L115.5,392.2 L119.2,392.0 L122.8,391.8 L126.5,391.6 L130.2,391.4 L133.8,391.2 L137.4,391.0 L141.1,390.8 L144.8,390.6 L148.4,390.4 L152.1,390.2 L155.7,390.0 L159.3,389.8 L163.0,389.6 L166.6,389.4 L170.3,389.2 L173.9,389.0 L177.6,388.8 L181.3,388.5 L184.9,388.3 L188.6,388.1 L192.2,387.9 L195.8,387.6 L199.5,387.4 L203.2,387.1 L206.8,386.9 L210.4,386.7 L214.1,386.4 L217.8,386.2 L221.4,385.9 L225.1,385.6 L228.7,385.4 L232.3,385.1 L236.0,384.8 L239.6,384.6 L243.3,384.3 L246.9,384.0 L250.6,383.7 L254.2,383.5 L257.9,383.2 L261.5,382.9 L265.2,382.6 L268.9,382.3 L272.5,382.0 L276.1,381.7 L279.8,381.3 L283.5,381.0 L287.1,380.7 L290.8,380.4 L294.4,380.0 L298.0,379.7 L301.7,379.4 L305.4,379.0 L309.0,378.7 L312.6,378.3 L316.3,377.9 L319.9,377.6 L323.6,377.2 L327.3,376.8 L330.9,376.4 L334.5,376.0 L338.2,375.6 L341.9,375.2 L345.5,374.8 L349.1,374.4 L352.8,374.0 L356.4,373.6 L360.1,373.1 L363.8,372.7 L367.4,372.3 L371.1,371.8 L374.7,371.3 L378.3,370.9 L382.0,370.4 L385.6,369.9 L389.3,369.4 L392.9,368.9 L396.6,368.4 L400.3,367.9 L403.9,367.4 L407.5,366.9 L411.2,366.3 L414.9,365.8 L418.5,365.2 L422.2,364.7 L425.8,364.1 L429.4,363.5 L433.1,362.9 L436.8,362.3 L440.4,361.7 L444.1,361.0 L447.7,360.4 L451.4,359.8 L455.0,359.1 L458.6,358.4 L462.3,357.7 L465.9,357.0 L469.6,356.3 L473.3,355.6 L476.9,354.9 L480.5,354.1 L484.2,353.4 L487.9,352.6 L491.5,351.8 L495.1,351.0 L498.8,350.2 L502.4,349.3 L506.1,348.5 L509.8,347.6 L513.4,346.7 L517.0,345.8 L520.7,344.9 L524.3,343.9 L528.0,343.0 L531.6,342.0 L535.3,341.0 L539.0,340.0 L542.6,338.9 L546.3,337.9 L549.9,336.8 L553.5,335.7 L557.2,334.6 L560.9,333.4 L564.5,332.2 L568.2,331.0 L571.8,329.8 L575.5,328.5 L579.1,327.2 L582.8,325.9 L586.4,324.6 L590.0,323.2 L593.7,321.8 L597.4,320.4 L601.0,318.9 L604.6,317.4 L608.3,315.9 L611.9,314.3 L615.6,312.7 L619.2,311.0 L622.9,309.3 L626.5,307.6 L630.2,305.8 L633.9,304.0 L637.5,302.1 L641.1,300.2 L644.8,298.3 L648.5,296.3 L652.1,294.2 L655.8,292.1 L659.4,289.9 L663.0,287.7 L666.7,285.4 L670.3,283.0 L674.0,280.6 L677.7,278.2 L681.3,275.6 L684.9,273.0 L688.6,270.3 L692.3,267.5 L695.9,264.7 L699.6,261.7 L703.2,258.7 L706.9,255.6 L710.5,252.4 L714.1,249.1 L717.8,245.7 L721.5,242.2 L725.1,238.6 L728.8,234.8 L732.4,231.0 L736.0,227.0 L739.7,222.9 L743.3,218.7 L747.0,214.3 L750.6,209.8 L754.3,205.1 L758.0,200.3 L761.6,195.2 L765.3,190.1 L768.9,184.7 L772.5,179.1 L776.2,173.4 L779.9,167.4 L783.5,161.2 L787.1,154.7 L790.8,148.1 L794.4,141.1 L798.1,133.9 L801.8,126.4 L805.4,118.6 L809.0,110.4 L812.7,102.0 L816.4,93.1 L820.0,83.9" fill="none" stroke="#2563eb" stroke-width="2.5"/>
<circle cx="820" cy="83.92452830188682" r="6" fill="#d33" stroke="#fff" stroke-width="2"/><text x="810" y="71.92452830188682" text-anchor="end" class="t" fill="#d33" font-weight="bold">graduation @ 5.749 ETH</text>
<text x="455" y="462" text-anchor="middle" class="lbl">tokens sold (millions)</text>
<text x="20" y="240" text-anchor="middle" class="lbl" transform="rotate(-90 20 240)">spot price (nano-ETH per token)</text>
</svg>
