<svg xmlns="http://www.w3.org/2000/svg" width="860" height="480" viewBox="0 0 860 480">
<style>.t{font:12px ui-monospace,monospace;fill:#444}.title{font:bold 16px ui-sans-serif,sans-serif;fill:#111}.sub{font:12px ui-sans-serif,sans-serif;fill:#666}.lbl{font:13px ui-sans-serif,sans-serif;fill:#333}</style>
<rect width="860" height="480" fill="#fff"/>
<text x="90" y="26" class="title">hoodpad curve — spot price vs tokens sold</text>
<text x="90" y="46" class="sub">virtualEth0=3.015028 ETH, virtualToken0=1078.9592e6 — ETH/USD $1747.11848108 (coingecko, 2026-07-09T19:28:01.974Z)</text>
<line x1="90" y1="416" x2="820" y2="416" stroke="#e5e5e5"/><text x="80" y="420" text-anchor="end" class="t">0</text><line x1="90" y1="332.58488063222717" x2="820" y2="332.58488063222717" stroke="#e5e5e5"/><text x="80" y="336.58488063222717" text-anchor="end" class="t">10.0</text><line x1="90" y1="249.1697612644544" x2="820" y2="249.1697612644544" stroke="#e5e5e5"/><text x="80" y="253.1697612644544" text-anchor="end" class="t">20.0</text><line x1="90" y1="165.7546418966816" x2="820" y2="165.7546418966816" stroke="#e5e5e5"/><text x="80" y="169.7546418966816" text-anchor="end" class="t">30.0</text><line x1="90" y1="82.33952252890879" x2="820" y2="82.33952252890879" stroke="#e5e5e5"/><text x="80" y="86.33952252890879" text-anchor="end" class="t">40.0</text><line x1="90" y1="416" x2="90" y2="422" stroke="#888"/><text x="90" y="438" text-anchor="middle" class="t">0</text><line x1="274.0877569032909" y1="416" x2="274.0877569032909" y2="422" stroke="#888"/><text x="274.0877569032909" y="438" text-anchor="middle" class="t">200</text><line x1="458.17551380658176" y1="416" x2="458.17551380658176" y2="422" stroke="#888"/><text x="458.17551380658176" y="438" text-anchor="middle" class="t">400</text><line x1="642.2632707098726" y1="416" x2="642.2632707098726" y2="422" stroke="#888"/><text x="642.2632707098726" y="438" text-anchor="middle" class="t">600</text>
<line x1="90" y1="416" x2="820" y2="416" stroke="#888"/>
<line x1="90" y1="64" x2="90" y2="416" stroke="#888"/>
<path d="M90.0,392.7 L93.7,392.5 L97.3,392.3 L101.0,392.2 L104.6,392.0 L108.3,391.8 L111.9,391.6 L115.5,391.4 L119.2,391.3 L122.8,391.1 L126.5,390.9 L130.2,390.7 L133.8,390.5 L137.4,390.3 L141.1,390.1 L144.8,389.9 L148.4,389.7 L152.1,389.5 L155.7,389.3 L159.3,389.1 L163.0,388.8 L166.6,388.6 L170.3,388.4 L173.9,388.2 L177.6,388.0 L181.3,387.7 L184.9,387.5 L188.6,387.3 L192.2,387.0 L195.8,386.8 L199.5,386.6 L203.2,386.3 L206.8,386.1 L210.4,385.8 L214.1,385.6 L217.8,385.3 L221.4,385.0 L225.1,384.8 L228.7,384.5 L232.3,384.2 L236.0,384.0 L239.6,383.7 L243.3,383.4 L246.9,383.1 L250.6,382.8 L254.2,382.5 L257.9,382.2 L261.5,381.9 L265.2,381.6 L268.9,381.3 L272.5,381.0 L276.1,380.7 L279.8,380.4 L283.5,380.0 L287.1,379.7 L290.8,379.4 L294.4,379.0 L298.0,378.7 L301.7,378.3 L305.4,378.0 L309.0,377.6 L312.6,377.3 L316.3,376.9 L319.9,376.5 L323.6,376.1 L327.3,375.8 L330.9,375.4 L334.5,375.0 L338.2,374.6 L341.9,374.2 L345.5,373.7 L349.1,373.3 L352.8,372.9 L356.4,372.5 L360.1,372.0 L363.8,371.6 L367.4,371.1 L371.1,370.7 L374.7,370.2 L378.3,369.7 L382.0,369.2 L385.6,368.7 L389.3,368.2 L392.9,367.7 L396.6,367.2 L400.3,366.7 L403.9,366.2 L407.5,365.6 L411.2,365.1 L414.9,364.5 L418.5,364.0 L422.2,363.4 L425.8,362.8 L429.4,362.2 L433.1,361.6 L436.8,361.0 L440.4,360.3 L444.1,359.7 L447.7,359.1 L451.4,358.4 L455.0,357.7 L458.6,357.0 L462.3,356.4 L465.9,355.6 L469.6,354.9 L473.3,354.2 L476.9,353.4 L480.5,352.7 L484.2,351.9 L487.9,351.1 L491.5,350.3 L495.1,349.5 L498.8,348.7 L502.4,347.8 L506.1,347.0 L509.8,346.1 L513.4,345.2 L517.0,344.3 L520.7,343.3 L524.3,342.4 L528.0,341.4 L531.6,340.4 L535.3,339.4 L539.0,338.4 L542.6,337.3 L546.3,336.2 L549.9,335.1 L553.5,334.0 L557.2,332.9 L560.9,331.7 L564.5,330.5 L568.2,329.3 L571.8,328.1 L575.5,326.8 L579.1,325.5 L582.8,324.2 L586.4,322.8 L590.0,321.4 L593.7,320.0 L597.4,318.6 L601.0,317.1 L604.6,315.6 L608.3,314.0 L611.9,312.4 L615.6,310.8 L619.2,309.2 L622.9,307.5 L626.5,305.7 L630.2,303.9 L633.9,302.1 L637.5,300.2 L641.1,298.3 L644.8,296.3 L648.5,294.3 L652.1,292.3 L655.8,290.1 L659.4,287.9 L663.0,285.7 L666.7,283.4 L670.3,281.1 L674.0,278.6 L677.7,276.2 L681.3,273.6 L684.9,271.0 L688.6,268.3 L692.3,265.5 L695.9,262.7 L699.6,259.7 L703.2,256.7 L706.9,253.6 L710.5,250.4 L714.1,247.1 L717.8,243.7 L721.5,240.2 L725.1,236.6 L728.8,232.9 L732.4,229.1 L736.0,225.1 L739.7,221.1 L743.3,216.9 L747.0,212.5 L750.6,208.0 L754.3,203.4 L758.0,198.6 L761.6,193.6 L765.3,188.5 L768.9,183.2 L772.5,177.6 L776.2,171.9 L779.9,166.0 L783.5,159.9 L787.1,153.5 L790.8,147.0 L794.4,140.1 L798.1,133.0 L801.8,125.6 L805.4,117.9 L809.0,109.9 L812.7,101.6 L816.4,92.9 L820.0,83.9" fill="none" stroke="#2563eb" stroke-width="2.5"/>
<circle cx="820" cy="83.92452830188677" r="6" fill="#d33" stroke="#fff" stroke-width="2"/><text x="810" y="71.92452830188677" text-anchor="end" class="t" fill="#d33" font-weight="bold">graduation @ 8.365 ETH</text>
<text x="455" y="462" text-anchor="middle" class="lbl">tokens sold (millions)</text>
<text x="20" y="240" text-anchor="middle" class="lbl" transform="rotate(-90 20 240)">spot price (nano-ETH per token)</text>
</svg>
